<svg width="16" height="16" viewBox="0 0 16 16" fill="none" xmlns="http://www.w3.org/2000/svg">
<g clip-path="url(#clip0_509_177)">
<path d="M0.0189593 8.40487C-0.00533416 8.27171 0.000652532 8.15862 0.000652532 8.0201V7.98346C2.17829 7.79665 4.55055 7.24813 6.31621 5.9863C6.82282 6.21842 7.32105 6.18675 7.79899 5.94966C8.80038 6.96106 9.78309 7.66398 11.0941 8.07506C11.2283 8.41709 11.4419 8.67973 11.7348 8.86294C11.3809 9.74242 10.8866 10.5181 10.252 11.1899C9.31405 10.5142 8.07559 11.0035 7.65256 11.9778C4.71906 11.946 1.76239 10.6625 0.0189593 8.40487V8.40487ZM7.63423 13.1321C6.13672 13.9055 4.55614 14.3224 2.94789 14.2314C1.70395 13.1876 0.807562 11.8232 0.348467 10.402C2.36877 12.1384 5.05398 13.1293 7.63423 13.1321V13.1321ZM10.9476 12.9122C12.6517 12.5568 14.2175 11.8715 15.4875 10.8234C13.8206 15.1693 8.80106 17.156 4.68696 15.3125C6.02246 15.12 7.27699 14.6588 8.34815 14.0482C9.41864 14.6616 10.6926 14.0164 10.9476 12.9122V12.9122ZM14.0962 8.44151C14.7522 8.3931 15.3918 8.34483 16.0001 8.23997C15.9989 8.40374 15.982 8.56495 15.9818 8.71635C14.8381 10.1799 13.1191 11.1798 11.4053 11.648C12.0448 10.8715 12.5192 10.009 12.8514 9.13777C13.3738 9.07001 13.8004 8.83007 14.0962 8.44151ZM14.3891 7.26887C14.3169 6.72575 14.0453 6.28493 13.6203 6.00462C13.7546 4.76103 13.7767 3.54762 13.6752 2.37677C14.9573 3.70029 15.7337 5.38962 15.9451 7.06733C15.4814 7.16505 14.9627 7.23223 14.3891 7.26887V7.26887ZM5.47414 5.16178C3.85701 6.18067 1.96351 6.67562 0.0921862 6.82914C0.559521 3.90858 2.54881 1.49483 5.21785 0.507872C5.29035 1.45633 5.50998 2.37201 5.85857 3.16463C5.29893 3.73293 5.16602 4.46149 5.47414 5.16178V5.16178ZM8.62275 3.80591C9.46562 2.75939 10.1664 1.68998 10.5632 0.434565C11.2466 0.666672 11.8629 0.965925 12.4121 1.33238C12.6039 2.84149 12.6306 4.34461 12.4853 5.74811C11.8222 5.86127 11.301 6.2647 11.0757 6.84745C10.0969 6.4931 9.29554 5.83321 8.58612 5.12513C8.76431 4.66543 8.77105 4.23454 8.62275 3.80591V3.80591ZM6.92031 2.72489C6.5797 1.88291 6.3574 1.06702 6.35281 0.178058C7.37413 -0.0569151 8.47676 -0.0490885 9.44652 0.141418C9.07603 1.17857 8.49067 2.13982 7.8722 2.92643C7.65459 2.83349 7.12453 2.62645 6.92031 2.72489V2.72489Z" fill="#A5EFAC"/>
</g>
<defs>
<clipPath id="clip0_509_177">
<rect width="16" height="16" fill="white"/>
</clipPath>
</defs>
</svg>
