<svg width="333" height="107" viewBox="0 0 333 107" fill="none" xmlns="http://www.w3.org/2000/svg">
<rect width="107" height="107" rx="16.1509" fill="#DC2F02"/>
<path d="M33.9507 44.4611L33.951 44.4608C34.9128 43.4495 35.6842 43.4591 36.1005 43.663C36.5745 43.8952 37.1309 44.6267 37.1309 46.0692V59.5744C37.1309 62.6165 38.8479 65.8817 41.1705 68.3557C43.4897 70.8261 46.6261 72.7331 49.7022 72.7726C52.8905 72.8145 55.5403 70.8594 57.342 68.3313C59.1483 65.7969 60.2279 62.5283 60.2279 59.5744C60.2279 55.8251 58.3382 52.9801 56.0439 50.4649C55.1203 49.4523 54.1027 48.4637 53.0965 47.4863C52.8579 47.2544 52.6198 47.0232 52.3839 46.7924C51.1394 45.5752 49.9338 44.354 48.8801 43.0362C46.7895 40.4217 45.3255 37.4646 45.4559 33.5373C45.5877 29.568 47.3524 24.4662 52.0502 17.5994C52.5129 16.9232 52.8826 16.4877 53.1592 16.2388C53.1594 16.2397 53.1597 16.2406 53.1599 16.2414C53.2586 16.6357 53.3218 17.2557 53.3218 18.1379C53.3218 22.412 55.1511 25.8727 57.7598 29.019C59.7025 31.362 62.1445 33.6033 64.6463 35.8996C65.4637 36.6498 66.2874 37.4059 67.1023 38.1733C73.7792 44.4617 80.2555 51.8425 80.2555 64.4854C80.2555 72.3885 77.6597 79.0542 73.1597 83.7377C68.6638 88.4171 62.1995 91.1889 54.3193 91.1889C38.5969 91.1889 27.0787 80.1569 27.0787 64.4854C27.0787 55.6888 30.0499 48.5587 33.9507 44.4611ZM53.4439 16.0325C53.4437 16.0331 53.4384 16.0356 53.4284 16.0384C53.439 16.0334 53.444 16.032 53.4439 16.0325Z" fill="#370617" stroke="#370617" stroke-width="1.99509"/>
<path d="M136.039 80V27.6364H156.699C160.67 27.6364 164.054 28.3949 166.849 29.9119C169.645 31.4119 171.775 33.5 173.241 36.1761C174.724 38.8352 175.466 41.9034 175.466 45.3807C175.466 48.858 174.716 51.9261 173.216 54.5852C171.716 57.2443 169.542 59.3153 166.696 60.7983C163.866 62.2812 160.44 63.0227 156.417 63.0227H143.25V54.1506H154.627C156.758 54.1506 158.514 53.7841 159.895 53.0511C161.292 52.3011 162.332 51.2699 163.014 49.9574C163.713 48.6278 164.062 47.1023 164.062 45.3807C164.062 43.642 163.713 42.125 163.014 40.8295C162.332 39.517 161.292 38.5028 159.895 37.7869C158.497 37.054 156.724 36.6875 154.576 36.6875H147.11V80H136.039ZM189.176 94.7273C187.796 94.7273 186.5 94.6165 185.29 94.3949C184.097 94.1903 183.108 93.9261 182.324 93.6023L184.779 85.4716C186.057 85.8636 187.208 86.0767 188.23 86.1108C189.27 86.1449 190.165 85.9063 190.915 85.3949C191.682 84.8835 192.304 84.0142 192.782 82.7869L193.421 81.125L179.333 40.7273H190.787L198.918 69.5682H199.327L207.534 40.7273H219.066L203.801 84.2443C203.069 86.358 202.071 88.1989 200.81 89.767C199.566 91.3523 197.989 92.571 196.08 93.4233C194.171 94.2926 191.87 94.7273 189.176 94.7273ZM224.64 80V40.7273H235.199V47.5795H235.608C236.324 45.142 237.526 43.3011 239.213 42.0568C240.901 40.7955 242.844 40.1648 245.043 40.1648C245.588 40.1648 246.176 40.1989 246.807 40.267C247.438 40.3352 247.992 40.429 248.469 40.5483V50.2131C247.958 50.0597 247.25 49.9233 246.347 49.804C245.444 49.6847 244.617 49.625 243.867 49.625C242.265 49.625 240.833 49.9744 239.571 50.6733C238.327 51.3551 237.338 52.3097 236.605 53.5369C235.89 54.7642 235.532 56.179 235.532 57.7812V80H224.64ZM270.017 80.767C266.045 80.767 262.61 79.9233 259.713 78.2358C256.832 76.5312 254.608 74.1619 253.039 71.1278C251.471 68.0767 250.687 64.5398 250.687 60.517C250.687 56.4602 251.471 52.9148 253.039 49.8807C254.608 46.8295 256.832 44.4602 259.713 42.7727C262.61 41.0682 266.045 40.2159 270.017 40.2159C273.988 40.2159 277.414 41.0682 280.295 42.7727C283.193 44.4602 285.426 46.8295 286.994 49.8807C288.562 52.9148 289.346 56.4602 289.346 60.517C289.346 64.5398 288.562 68.0767 286.994 71.1278C285.426 74.1619 283.193 76.5312 280.295 78.2358C277.414 79.9233 273.988 80.767 270.017 80.767ZM270.068 72.3295C271.875 72.3295 273.383 71.8182 274.593 70.7955C275.804 69.7557 276.716 68.3409 277.329 66.5511C277.96 64.7614 278.275 62.7244 278.275 60.4403C278.275 58.1562 277.96 56.1193 277.329 54.3295C276.716 52.5398 275.804 51.125 274.593 50.0852C273.383 49.0455 271.875 48.5256 270.068 48.5256C268.244 48.5256 266.71 49.0455 265.466 50.0852C264.238 51.125 263.309 52.5398 262.679 54.3295C262.065 56.1193 261.758 58.1562 261.758 60.4403C261.758 62.7244 262.065 64.7614 262.679 66.5511C263.309 68.3409 264.238 69.7557 265.466 70.7955C266.71 71.8182 268.244 72.3295 270.068 72.3295ZM329.105 51.9261L319.133 52.5398C318.963 51.6875 318.596 50.9205 318.034 50.2386C317.471 49.5398 316.73 48.9858 315.809 48.5767C314.906 48.1506 313.824 47.9375 312.562 47.9375C310.875 47.9375 309.451 48.2955 308.292 49.0114C307.133 49.7102 306.554 50.6477 306.554 51.8239C306.554 52.7614 306.929 53.554 307.679 54.2017C308.429 54.8494 309.716 55.3693 311.539 55.7614L318.647 57.1932C322.466 57.9773 325.312 59.2386 327.187 60.9773C329.062 62.7159 330 65 330 67.8295C330 70.4034 329.241 72.6619 327.724 74.6051C326.224 76.5483 324.162 78.0653 321.537 79.1562C318.929 80.2301 315.92 80.767 312.511 80.767C307.312 80.767 303.17 79.6847 300.085 77.5199C297.017 75.3381 295.218 72.3722 294.69 68.6222L305.403 68.0597C305.727 69.6449 306.511 70.8551 307.755 71.6903C309 72.5085 310.593 72.9176 312.537 72.9176C314.446 72.9176 315.98 72.5511 317.139 71.8182C318.315 71.0682 318.912 70.1051 318.929 68.929C318.912 67.9403 318.494 67.1307 317.676 66.5C316.858 65.8523 315.596 65.358 313.892 65.017L307.091 63.6619C303.255 62.8949 300.4 61.5653 298.525 59.6733C296.667 57.7812 295.738 55.3693 295.738 52.4375C295.738 49.9148 296.42 47.7415 297.784 45.9176C299.164 44.0938 301.099 42.6875 303.588 41.6989C306.093 40.7102 309.025 40.2159 312.383 40.2159C317.343 40.2159 321.247 41.2642 324.093 43.3608C326.957 45.4574 328.627 48.3125 329.105 51.9261Z" fill="#DC2F02"/>
</svg>
